<svg id="Layer_1" data-name="Layer 1" xmlns="http://www.w3.org/2000/svg" viewBox="0 0 292.96 219.3"><defs><style>.cls-1{fill:#fff;}</style></defs><title>Arbor-Logo-Stacked-RGB-White-NoTag</title><path class="cls-1" d="M291.59,365.6H268.3L264.85,373H250.08v-2.19l26.57-57.62h6.5l26.66,57.62V373H295Zm-11.72-28.43-6.67,15.52h13.5Z" transform="translate(-250.08 -154.98)"/><path class="cls-1" d="M366.35,370.83V373H349.47l-10.12-17.38h-7.84V373h-15.1V314h25.9c23.2.09,27.42,28,12.48,38.13Zm-24-43.36c-3.54-.09-7.25,0-10.8,0v14.76h10.8C350.49,342.24,350.91,327.56,342.3,327.47Z" transform="translate(-250.08 -154.98)"/><path class="cls-1" d="M412.89,342.32c4.81,2.45,7.09,6.83,7.09,12.06-.09,10.29-6.33,18.64-18.39,18.64H373.92V314h25.22a18.11,18.11,0,0,1,18.39,18.14A14.1,14.1,0,0,1,412.89,342.32Zm-24.38-14.85V337H398c6,0,6-9.53-.09-9.53Zm0,22.1v10h12.06c6.07,0,6-10-.09-10Z" transform="translate(-250.08 -154.98)"/><path class="cls-1" d="M424.85,343.59c0-40.83,60.57-40.83,60.57,0S424.85,384.5,424.85,343.59Zm45.13,0c0-21.26-29.61-21.26-29.61,0C440.38,365,470,365,470,343.59Z" transform="translate(-250.08 -154.98)"/><path class="cls-1" d="M543,370.83V373H526.17L516,355.65H508.2V373H493.1V314H519c23.2.09,27.42,28,12.48,38.13Zm-24-43.36c-3.54-.09-7.25,0-10.8,0v14.76H519C527.18,342.24,527.6,327.56,519,327.47Z" transform="translate(-250.08 -154.98)"/><path class="cls-1" d="M439.39,258.68h17l-8.52-14.76-42.83-74.18L396.56,155,388,169.74l-42.83,74.18-8.52,14.76h22.92l-11.38,19.71H444.9l-11.38-19.71Zm-85.66-9.84,42.83-74.18,42.83,74.18H427.84l-31.27-54.17-31.27,54.17Zm62.74,0H376.65l19.91-34.49Zm11.38,19.71H365.27l5.7-9.87h51.18Z" transform="translate(-250.08 -154.98)"/></svg>